<?xml version="1.0" encoding="UTF-8"?>
<svg id="Laag_1" xmlns="http://www.w3.org/2000/svg" version="1.1" viewBox="0 0 33.16 33.16">
  <!-- Generator: Adobe Illustrator 30.8.1, SVG Export Plug-In . SVG Version: 2.1.4 Build 1)  -->
  <defs>
    <style>
      .st0 {
        fill: #f5fff3;
      }
    </style>
  </defs>
  <path class="st0" d="M9.72.12c-1.76.08-2.97.36-4.02.78-1.09.42-2.01.99-2.93,1.92-.92.92-1.49,1.85-1.91,2.94-.41,1.06-.68,2.26-.76,4.03C.02,11.54,0,12.11.01,16.61c0,4.5.03,5.07.11,6.84.08,1.76.36,2.97.78,4.02.43,1.09.99,2.01,1.92,2.93.92.92,1.85,1.48,2.94,1.91,1.05.41,2.26.69,4.03.76,1.76.08,2.33.1,6.83.09,4.5,0,5.07-.03,6.84-.11,1.77-.08,2.97-.37,4.02-.78,1.09-.43,2.01-.99,2.93-1.92.92-.92,1.48-1.85,1.91-2.94.41-1.05.69-2.26.76-4.02.08-1.77.1-2.33.09-6.84,0-4.5-.03-5.07-.11-6.83s-.36-2.97-.78-4.02c-.43-1.09-.99-2.01-1.92-2.93-.92-.92-1.85-1.49-2.94-1.91-1.06-.41-2.26-.69-4.03-.76C21.63.01,21.06,0,16.56,0c-4.5,0-5.07.03-6.83.11M9.92,30.09c-1.62-.07-2.49-.34-3.08-.56-.77-.3-1.33-.66-1.91-1.24-.58-.58-.94-1.13-1.24-1.9-.23-.58-.5-1.46-.58-3.08-.08-1.75-.1-2.27-.11-6.7,0-4.43,0-4.95.08-6.7.07-1.62.34-2.49.56-3.08.3-.78.66-1.33,1.24-1.91.58-.58,1.13-.94,1.9-1.24.58-.23,1.46-.5,3.08-.58,1.75-.08,2.27-.1,6.7-.11s4.95,0,6.7.08c1.62.07,2.49.34,3.08.56.77.3,1.33.66,1.91,1.24.58.58.94,1.13,1.24,1.9.23.58.5,1.46.58,3.08.08,1.75.1,2.27.11,6.7,0,4.43,0,4.95-.08,6.7-.07,1.62-.34,2.49-.56,3.08-.3.77-.66,1.33-1.24,1.91-.58.58-1.13.94-1.9,1.24-.58.23-1.46.5-3.08.58-1.75.08-2.27.1-6.7.11s-4.95,0-6.7-.08M23.43,7.72c0,1.1.89,1.99,1.99,1.99,1.1,0,1.99-.89,1.99-1.99,0-1.1-.89-1.99-1.99-1.99,0,0,0,0,0,0-1.1,0-1.99.89-1.99,1.99M8.08,16.6c0,4.7,3.83,8.51,8.53,8.5,4.7,0,8.51-3.83,8.5-8.53,0-4.7-3.83-8.51-8.53-8.5s-8.51,3.83-8.5,8.53M11.06,16.59c0-3.05,2.46-5.53,5.52-5.54,3.05,0,5.53,2.46,5.54,5.52,0,3.05-2.46,5.53-5.52,5.54-3.05,0-5.53-2.46-5.54-5.51,0,0,0,0,0,0"/>
</svg>